



<svg  xmlns="http://www.w3.org/2000/svg">
<symbol id="facebook" viewBox="0 0 44 44">
<g clip-path="url(#clip0_2306_190)">
                          <path
                            fill-rule="evenodd"
                            clip-rule="evenodd"
                            d="M21.93 0.666016C25.8963 0.711276 29.4795 1.68607 32.6795 3.59041C35.8414 5.45673 38.4716 8.10301 40.3186 11.2762C42.2113 14.4955 43.1803 18.1004 43.2254 22.0908C43.113 27.5507 41.3909 32.214 38.0591 36.0807C34.7273 39.9473 30.4601 42.3395 26.0427 43.2565V27.9487H30.219L31.1634 21.9331H24.8396V17.993C24.8045 17.1762 25.0628 16.3738 25.5678 15.7308C26.0735 15.0862 26.9641 14.7473 28.2395 14.7143H32.0583V9.44476C32.0035 9.42713 31.4836 9.35742 30.4985 9.23563C29.3814 9.10492 28.258 9.0351 27.1332 9.02649C24.5876 9.03823 22.5743 9.75631 21.0935 11.1807C19.6125 12.6047 18.856 14.665 18.824 17.3614V21.9331H14.0115V27.9487H18.824V43.2565C13.4 42.3395 9.1328 39.9473 5.801 36.0807C2.4692 32.214 0.747189 27.5507 0.634766 22.0908C0.679745 18.1002 1.64865 14.4953 3.54148 11.2762C5.38852 8.10301 8.01873 5.45673 11.1806 3.59041C14.3805 1.68644 17.9637 0.711643 21.93 0.666016Z"
                          />
                        </g>
</symbol>
<symbol id="youtube" viewBox="0 0 45 46">
<path
                          fill-rule="evenodd"
                          clip-rule="evenodd"
                          d="M30.8314 28.2638C30.6578 28.2631 30.4901 28.3268 30.3603 28.4426C30.231 28.5435 30.1663 28.9248 30.1663 29.5865V29.917L30.2078 29.9581H31.4135L31.455 29.917V29.1043C31.455 28.5435 31.2471 28.2633 30.8314 28.2637V28.2638ZM25.5796 28.236C25.4532 28.2376 25.3288 28.2683 25.216 28.3255C25.1031 28.3828 25.0047 28.4652 24.9283 28.5665V33.3481C25.1408 33.5778 25.3579 33.6926 25.5796 33.6926H25.7043C25.9907 33.6926 26.1339 33.472 26.1338 33.0309V28.9665C26.0969 28.4795 25.9121 28.236 25.5796 28.236ZM17.9719 27.1199H19.3992V33.0176C19.3992 33.3572 19.5054 33.527 19.7179 33.527H19.815C20.0367 33.527 20.3138 33.3342 20.6464 32.9487V27.1198H22.0875V34.8087H20.6464V33.982H20.6326C20.0597 34.6062 19.5054 34.9185 18.9697 34.9187H18.942C18.8017 34.9237 18.6625 34.8935 18.5367 34.831C18.4109 34.7684 18.3026 34.6754 18.2214 34.5603C18.0551 34.3863 17.9719 33.8765 17.9719 33.0309V27.1199ZM30.7899 26.941H30.9423C32.2727 26.941 32.9378 27.7447 32.9377 29.3521V31.1298H30.2078L30.1663 31.1709V32.4937C30.1663 33.2835 30.3557 33.6785 30.7345 33.6787H30.8591C30.9912 33.6752 31.1202 33.6373 31.2333 33.5687C31.3811 33.4582 31.455 33.155 31.455 32.6593V32.0665H32.9378V32.397C32.9378 33.0037 32.8823 33.4586 32.7715 33.7615C32.4666 34.5972 31.8061 35.0152 30.7899 35.0154C30.4909 35.0184 30.1943 34.9621 29.9169 34.8498C29.1131 34.4824 28.7112 33.7752 28.7113 32.7282V29.1315C28.7127 28.8208 28.769 28.5129 28.8776 28.2221C29.2932 27.3682 29.9307 26.9412 30.7899 26.941H30.7899ZM23.501 24.3915H24.9283V27.7266H24.9559C25.3717 27.2576 25.792 27.0234 26.217 27.0238C27.15 27.0238 27.6166 27.6851 27.6166 29.0076V33.2243C27.6144 33.4745 27.5865 33.7237 27.5334 33.9682C27.3209 34.5833 26.9468 34.8911 26.411 34.8915H26.217C25.7643 34.8915 25.344 34.6802 24.9559 34.2576H24.9283V34.8087H23.501V24.3915ZM13.0249 24.3915H17.9858V25.8799H16.3507L16.3091 25.9209V34.8087H14.7017V25.921L14.6601 25.8799H13.0249V24.3915ZM21.852 21.691C19.8288 21.691 18.1105 21.7186 16.6971 21.7738C14.8679 21.8107 13.8794 21.8795 13.7317 21.9805C12.8541 22.2838 12.2166 22.766 11.8193 23.4271C11.5423 23.9601 11.3898 24.3321 11.3621 24.5432C11.2235 26.0406 11.1542 27.6022 11.1542 29.2282V30.0137C11.1542 31.3824 11.1958 32.5628 11.2789 33.5548C11.2789 34.8776 11.6392 35.8466 12.3597 36.462C12.951 36.9859 13.5515 37.289 14.1612 37.3714C16.3968 37.5001 18.9742 37.5644 21.8935 37.5642H24.1245C26.5356 37.5642 28.6604 37.5229 30.4988 37.4403C31.5797 37.4403 32.3419 37.3209 32.7853 37.082C33.6629 36.6318 34.2541 35.9658 34.559 35.0842C34.7067 34.8358 34.8084 33.196 34.8638 30.1648V29.0904C34.8638 27.7489 34.8223 26.6329 34.7391 25.7421C34.7391 24.4194 34.4065 23.4594 33.7414 22.8622C33.3441 22.3938 32.7159 22.0631 31.8568 21.8699C29.6396 21.7509 27.0668 21.6913 24.1383 21.6911L21.852 21.691ZM22.8325 13.9472L23.0958 13.9889C23.3453 14.0898 23.47 14.2918 23.4699 14.595V18.5772C23.4699 19.0914 23.2621 19.3486 22.8464 19.3489H22.8325C22.4537 19.3489 22.2644 19.1422 22.2644 18.7289V14.485C22.2644 14.1726 22.4537 13.9933 22.8325 13.9472V13.9472ZM26.1998 12.79L26.1582 12.8311V19.1005C26.1546 19.3783 26.1825 19.6557 26.2414 19.9271C26.3892 20.396 26.6986 20.6303 27.1698 20.6299C27.6964 20.6299 28.2461 20.3177 28.8188 19.6933V20.4649L28.8604 20.506H30.2461L30.2877 20.4649V12.8311L30.2461 12.79H28.8604L28.8188 12.8311V18.6461C28.4862 19.0135 28.2137 19.1972 28.0013 19.1972H27.9458C27.7241 19.1972 27.6133 18.9905 27.6133 18.5772V12.8311L27.5717 12.79L26.1998 12.79ZM22.8325 12.6106C22.2598 12.6106 21.7933 12.7622 21.433 13.0656C20.9803 13.3502 20.7539 13.9565 20.7539 14.8845V18.1911C20.7497 18.5091 20.7682 18.8269 20.8094 19.1422C21.105 20.1894 21.784 20.7129 22.8464 20.7127L23.5392 20.63C24.4815 20.3272 24.9527 19.6659 24.9527 18.6461V14.5261C24.9559 14.295 24.9135 14.0656 24.8279 13.8512C24.477 13.0239 23.8534 12.6104 22.9573 12.6106L22.8325 12.6106ZM15.4328 10.0617L15.405 10.0895L15.6407 10.8884C16.7584 14.4711 17.3173 16.3267 17.3174 16.455V20.465L17.359 20.5061H18.9248L18.9664 20.465V16.2622C18.9664 16.1794 19.5946 14.1219 20.851 10.0895H20.8371L20.8094 10.0617H19.1881L18.1904 14.2228H18.0934C17.7884 12.9369 17.5159 11.8667 17.2758 11.0122C17.1372 10.3784 17.0494 10.0615 17.0125 10.0617L15.4328 10.0617ZM23.0091 1.9082C35.0345 1.9082 44.7832 11.7156 44.7832 23.8133C44.7832 35.9109 35.0345 45.7177 23.0091 45.7177C10.9836 45.7177 1.23486 35.9109 1.23486 23.8133C1.23486 11.7156 10.9835 1.9082 23.0091 1.9082Z"
                        />
</symbol>
<symbol id="instagram" viewBox="0 0 45 46">
<path
                          fill-rule="evenodd"
                          clip-rule="evenodd"
                          d="M23.0525 18.6352C26.0946 18.6352 28.5606 21.0777 28.5606 24.0906C28.5606 27.1029 26.0946 29.5454 23.0525 29.5454C20.0105 29.5454 17.5444 27.1029 17.5444 24.0906C17.5444 21.0777 20.0105 18.6352 23.0525 18.6352ZM23.0525 16.4537C18.7937 16.4537 15.3412 19.8728 15.3412 24.0906C15.3412 28.3079 18.7937 31.7275 23.0525 31.7275C27.3114 31.7275 30.7638 28.3079 30.7638 24.0906C30.7638 19.8728 27.3114 16.4537 23.0525 16.4537ZM31.0019 14.6179C30.5744 14.6247 30.1584 14.7584 29.8061 15.0023C29.4539 15.2461 29.1811 15.5893 29.0221 15.9886C28.8631 16.3879 28.825 16.8256 28.9125 17.2467C29.0001 17.6677 29.2093 18.0534 29.514 18.3552C29.8188 18.6569 30.2053 18.8614 30.6252 18.9428C31.0451 19.0243 31.4795 18.9791 31.8739 18.8129C32.2683 18.6467 32.6051 18.367 32.842 18.0089C33.0788 17.6507 33.2052 17.2302 33.2052 16.8C33.2006 16.2167 32.9659 15.6592 32.5527 15.25C32.1396 14.8408 31.5817 14.6134 31.0019 14.6179ZM17.6698 12.2431H28.4352C31.9374 12.2431 34.7765 15.0548 34.7765 18.5228V29.6578C34.7765 33.1264 31.9374 35.9375 28.4352 35.9375H17.6698C14.1676 35.9375 11.3285 33.1264 11.3285 29.6578V18.5228C11.3285 15.0548 14.1676 12.2431 17.6698 12.2431ZM16.6545 10.0714C12.4917 10.0714 9.117 13.4137 9.117 17.536V30.6446C9.117 34.7676 12.4916 38.1092 16.6545 38.1092H29.4506C33.6134 38.1092 36.988 34.7676 36.988 30.6446V17.536C36.988 13.4136 33.6134 10.0714 29.4506 10.0714H16.6545ZM23.0525 2.18555C35.0781 2.18555 44.8267 11.9923 44.8267 24.0906C44.8267 36.1883 35.0781 45.9951 23.0525 45.9951C11.0269 45.9951 1.27832 36.1883 1.27832 24.0906C1.27832 11.9924 11.0269 2.18555 23.0525 2.18555Z"
                        />
</symbol>
<symbol id="location" viewBox="0 0 19 19">
<g clip-path="url(#clip0_2306_216)">
                    <path
                      d="M9.5 0C7.6111 0.00250567 5.80029 0.753978 4.46463 2.08963C3.12898 3.42529 2.37751 5.2361 2.375 7.125C2.375 12.2402 9.01312 18.6467 9.29516 18.9169C9.35001 18.9702 9.4235 19 9.5 19C9.5765 19 9.64999 18.9702 9.70484 18.9169C9.98687 18.6467 16.625 12.2402 16.625 7.125C16.6225 5.2361 15.871 3.42529 14.5354 2.08963C13.1997 0.753978 11.3889 0.00250567 9.5 0V0ZM9.5 10.3906C8.85412 10.3906 8.22274 10.1991 7.68572 9.84027C7.14869 9.48144 6.73012 8.97142 6.48296 8.3747C6.23579 7.77799 6.17112 7.12138 6.29712 6.48791C6.42313 5.85444 6.73415 5.27256 7.19085 4.81585C7.64756 4.35915 8.22944 4.04813 8.86291 3.92212C9.49638 3.79612 10.153 3.86079 10.7497 4.10796C11.3464 4.35512 11.8564 4.77369 12.2153 5.31072C12.5741 5.84774 12.7656 6.47912 12.7656 7.125C12.7651 7.99094 12.4209 8.82126 11.8086 9.43357C11.1963 10.0459 10.3659 10.3901 9.5 10.3906Z"
                      fill="white"
                    />
                  </g>
</symbol>
<symbol id="mail"  viewBox="0 0 19 19">
 <g clip-path="url(#clip0_2306_199)">
                    <path
                      d="M12.0469 10.0056L18.1738 13.8789V5.96875L12.0469 10.0056Z"
                    />
                    <path d="M0 5.96875V13.8789L6.12688 10.0056L0 5.96875Z" />
                    <path
                      d="M17.0382 3.66602H1.13597C0.569174 3.66602 0.11937 4.08856 0.0341797 4.63264L9.08706 10.5971L18.1399 4.63264C18.0548 4.08856 17.6049 3.66602 17.0382 3.66602Z"
                    />
                    <path
                      d="M11.0064 10.6925L9.39911 11.7512C9.3037 11.8136 9.19579 11.8443 9.08674 11.8443C8.9777 11.8443 8.86979 11.8136 8.77438 11.7512L7.16712 10.6914L0.0361328 15.2019C0.123595 15.7415 0.571128 16.1606 1.13565 16.1606H17.0378C17.6024 16.1606 18.0499 15.7415 18.1374 15.2019L11.0064 10.6925Z"
                    />
                  </g>
</symbol>
<symbol id="logoText" viewBox="0 0 95 39">
<path d="M9.325 18.0504C7.975 18.0504 6.73333 17.8337 5.6 17.4004C4.46667 16.9504 3.48333 16.3254 2.65 15.5254C1.81667 14.7087 1.16667 13.7587 0.7 12.6754C0.233333 11.5921 0 10.4004 0 9.10039C0 7.80039 0.233333 6.60872 0.7 5.52539C1.16667 4.44206 1.81667 3.50039 2.65 2.70039C3.5 1.88372 4.49167 1.25872 5.625 0.825389C6.75833 0.37539 8.00833 0.150391 9.375 0.150391C10.7583 0.150391 12.025 0.37539 13.175 0.825389C14.325 1.27539 15.3 1.95039 16.1 2.85039L14.55 4.40039C13.8333 3.70039 13.05 3.19206 12.2 2.87539C11.3667 2.54206 10.4583 2.37539 9.475 2.37539C8.475 2.37539 7.54167 2.54206 6.675 2.87539C5.825 3.20872 5.08333 3.67539 4.45 4.27539C3.83333 4.87539 3.35 5.59206 3 6.42539C2.66667 7.24206 2.5 8.13372 2.5 9.10039C2.5 10.0504 2.66667 10.9421 3 11.7754C3.35 12.5921 3.83333 13.3087 4.45 13.9254C5.08333 14.5254 5.825 14.9921 6.675 15.3254C7.525 15.6587 8.45 15.8254 9.45 15.8254C10.3833 15.8254 11.275 15.6837 12.125 15.4004C12.9917 15.1004 13.7917 14.6087 14.525 13.9254L15.95 15.8254C15.0833 16.5587 14.0667 17.1171 12.9 17.5004C11.75 17.8671 10.5583 18.0504 9.325 18.0504ZM13.55 15.5004V9.00039H15.95V15.8254L13.55 15.5004Z" fill="#618135"/>
<path d="M20.7365 17.8504V0.35039H27.5615C29.0949 0.35039 30.4032 0.592057 31.4865 1.07539C32.5699 1.55872 33.4032 2.25872 33.9865 3.17539C34.5699 4.09206 34.8615 5.18372 34.8615 6.45039C34.8615 7.71706 34.5699 8.80872 33.9865 9.72539C33.4032 10.6254 32.5699 11.3171 31.4865 11.8004C30.4032 12.2837 29.0949 12.5254 27.5615 12.5254H22.1115L23.2365 11.3754V17.8504H20.7365ZM32.4365 17.8504L27.9865 11.5004H30.6615L35.1615 17.8504H32.4365ZM23.2365 11.6254L22.1115 10.4004H27.4865C29.0865 10.4004 30.2949 10.0587 31.1115 9.37539C31.9449 8.67539 32.3615 7.70039 32.3615 6.45039C32.3615 5.20039 31.9449 4.23372 31.1115 3.55039C30.2949 2.86706 29.0865 2.52539 27.4865 2.52539H22.1115L23.2365 1.27539V11.6254Z" fill="#618135"/>
<path d="M36.2506 17.8504L44.1756 0.35039H46.6506L54.6006 17.8504H51.9756L44.9006 1.75039H45.9006L38.8256 17.8504H36.2506ZM39.6256 13.4754L40.3006 11.4754H50.1506L50.8756 13.4754H39.6256Z" fill="#618135"/>
<path d="M57.2111 17.8504V0.35039H59.2611L70.8361 14.7254H69.7611V0.35039H72.2611V17.8504H70.2111L58.6361 3.47539H59.7111V17.8504H57.2111Z" fill="#618135"/>
<path d="M77.4992 17.8504V0.35039H84.8742C86.7409 0.35039 88.3826 0.717057 89.7992 1.45039C91.2326 2.18372 92.3409 3.20872 93.1242 4.52539C93.9242 5.84206 94.3242 7.36706 94.3242 9.10039C94.3242 10.8337 93.9242 12.3587 93.1242 13.6754C92.3409 14.9921 91.2326 16.0171 89.7992 16.7504C88.3826 17.4837 86.7409 17.8504 84.8742 17.8504H77.4992ZM79.9992 15.6754H84.7242C86.1742 15.6754 87.4242 15.4004 88.4742 14.8504C89.5409 14.3004 90.3659 13.5337 90.9492 12.5504C91.5326 11.5504 91.8242 10.4004 91.8242 9.10039C91.8242 7.78372 91.5326 6.63372 90.9492 5.65039C90.3659 4.66706 89.5409 3.90039 88.4742 3.35039C87.4242 2.80039 86.1742 2.52539 84.7242 2.52539H79.9992V15.6754Z" fill="#618135"/>
<path d="M6.46364 38.8496C5.2563 38.8496 4.09108 38.7054 2.96798 38.4169C1.85891 38.1147 0.953406 37.7301 0.251465 37.2631L1.62025 34.2548C2.28007 34.6669 3.03817 35.0103 3.89454 35.285C4.76495 35.546 5.62833 35.6765 6.4847 35.6765C7.06029 35.6765 7.52357 35.6285 7.87455 35.5323C8.22552 35.4224 8.47821 35.285 8.63264 35.1202C8.80111 34.9416 8.88534 34.7356 8.88534 34.5021C8.88534 34.1724 8.73091 33.9114 8.42206 33.7191C8.1132 33.5268 7.7131 33.3688 7.22174 33.2452C6.73038 33.1216 6.18287 32.998 5.5792 32.8743C4.98957 32.7507 4.39292 32.5927 3.78925 32.4004C3.19962 32.2081 2.65912 31.9609 2.16776 31.6587C1.67641 31.3427 1.2763 30.9375 0.967445 30.443C0.658591 29.9348 0.504164 29.296 0.504164 28.5268C0.504164 27.6614 0.742824 26.8785 1.22014 26.1779C1.7115 25.4774 2.44152 24.9142 3.4102 24.4883C4.37888 24.0625 5.58622 23.8496 7.03222 23.8496C8.00089 23.8496 8.94852 23.9595 9.87508 24.1793C10.8157 24.3853 11.651 24.6944 12.381 25.1065L11.0965 28.1353C10.3945 27.7644 9.69959 27.4897 9.01169 27.3111C8.32379 27.1188 7.65694 27.0227 7.01116 27.0227C6.43557 27.0227 5.97229 27.0845 5.62131 27.2081C5.27034 27.318 5.01765 27.4691 4.86322 27.6614C4.70879 27.8537 4.63158 28.0735 4.63158 28.3208C4.63158 28.6367 4.77899 28.8908 5.0738 29.0831C5.38265 29.2617 5.78276 29.4128 6.27412 29.5364C6.77952 29.6463 7.32703 29.7631 7.91666 29.8867C8.52033 30.0103 9.11698 30.1683 9.70661 30.3606C10.3103 30.5392 10.8578 30.7864 11.3492 31.1024C11.8405 31.4046 12.2336 31.8098 12.5284 32.318C12.8373 32.8125 12.9917 33.4375 12.9917 34.193C12.9917 35.0309 12.746 35.807 12.2547 36.5213C11.7773 37.2219 11.0543 37.785 10.0857 38.2109C9.13102 38.6367 7.92368 38.8496 6.46364 38.8496Z" fill="#31477C"/>
<path d="M22.267 38.8496C21.1018 38.8496 20.0208 38.671 19.0241 38.3139C18.0413 37.943 17.185 37.421 16.455 36.748C15.739 36.0749 15.1774 35.285 14.7703 34.3785C14.3632 33.4581 14.1596 32.4485 14.1596 31.3496C14.1596 30.2507 14.3632 29.248 14.7703 28.3414C15.1774 27.421 15.739 26.6243 16.455 25.9513C17.185 25.2782 18.0413 24.7631 19.0241 24.4059C20.0208 24.035 21.1018 23.8496 22.267 23.8496C23.6288 23.8496 24.8431 24.0831 25.9101 24.5502C26.9911 25.0172 27.8896 25.6903 28.6056 26.5694L25.9522 28.9183C25.4749 28.3688 24.9484 27.9499 24.3728 27.6614C23.8113 27.373 23.1795 27.2287 22.4776 27.2287C21.8739 27.2287 21.3194 27.3249 20.814 27.5172C20.3086 27.7095 19.8734 27.9911 19.5084 28.362C19.1574 28.7191 18.8766 29.1518 18.6661 29.66C18.4695 30.1683 18.3713 30.7315 18.3713 31.3496C18.3713 31.9677 18.4695 32.5309 18.6661 33.0392C18.8766 33.5474 19.1574 33.987 19.5084 34.3579C19.8734 34.715 20.3086 34.9897 20.814 35.182C21.3194 35.3743 21.8739 35.4705 22.4776 35.4705C23.1795 35.4705 23.8113 35.3263 24.3728 35.0378C24.9484 34.7493 25.4749 34.3304 25.9522 33.7809L28.6056 36.1298C27.8896 36.9952 26.9911 37.6683 25.9101 38.1491C24.8431 38.6161 23.6288 38.8496 22.267 38.8496Z" fill="#31477C"/>
<path d="M40.3199 24.1381H44.4894V38.5611H40.3199V24.1381ZM34.6341 38.5611H30.4646V24.1381H34.6341V38.5611ZM40.6147 32.9361H34.3393V29.557H40.6147V32.9361Z" fill="#31477C"/>
<path d="M54.864 38.8496C53.6848 38.8496 52.5967 38.6642 51.6 38.2933C50.6032 37.9224 49.7328 37.4004 48.9888 36.7274C48.2588 36.0405 47.6902 35.2438 47.2831 34.3372C46.8759 33.4307 46.6724 32.4348 46.6724 31.3496C46.6724 30.2644 46.8759 29.2686 47.2831 28.362C47.6902 27.4554 48.2588 26.6655 48.9888 25.9925C49.7328 25.3057 50.6032 24.7768 51.6 24.4059C52.5967 24.035 53.6848 23.8496 54.864 23.8496C56.0573 23.8496 57.1453 24.035 58.128 24.4059C59.1248 24.7768 59.9882 25.3057 60.7182 25.9925C61.4482 26.6655 62.0168 27.4554 62.4239 28.362C62.8451 29.2686 63.0557 30.2644 63.0557 31.3496C63.0557 32.4348 62.8451 33.4375 62.4239 34.3579C62.0168 35.2644 61.4482 36.0543 60.7182 36.7274C59.9882 37.4004 59.1248 37.9224 58.128 38.2933C57.1453 38.6642 56.0573 38.8496 54.864 38.8496ZM54.864 35.4705C55.4256 35.4705 55.945 35.3743 56.4223 35.182C56.9137 34.9897 57.3349 34.715 57.6858 34.3579C58.0508 33.987 58.3316 33.5474 58.5281 33.0392C58.7387 32.5309 58.844 31.9677 58.844 31.3496C58.844 30.7177 58.7387 30.1546 58.5281 29.66C58.3316 29.1518 58.0508 28.7191 57.6858 28.362C57.3349 27.9911 56.9137 27.7095 56.4223 27.5172C55.945 27.3249 55.4256 27.2287 54.864 27.2287C54.3025 27.2287 53.776 27.3249 53.2846 27.5172C52.8073 27.7095 52.3862 27.9911 52.0212 28.362C51.6702 28.7191 51.3894 29.1518 51.1788 29.66C50.9823 30.1546 50.884 30.7177 50.884 31.3496C50.884 31.9677 50.9823 32.5309 51.1788 33.0392C51.3894 33.5474 51.6702 33.987 52.0212 34.3579C52.3862 34.715 52.8073 34.9897 53.2846 35.182C53.776 35.3743 54.3025 35.4705 54.864 35.4705Z" fill="#31477C"/>
<path d="M72.673 38.8496C71.4938 38.8496 70.4058 38.6642 69.409 38.2933C68.4122 37.9224 67.5418 37.4004 66.7978 36.7274C66.0678 36.0405 65.4992 35.2438 65.0921 34.3372C64.6849 33.4307 64.4814 32.4348 64.4814 31.3496C64.4814 30.2644 64.6849 29.2686 65.0921 28.362C65.4992 27.4554 66.0678 26.6655 66.7978 25.9925C67.5418 25.3057 68.4122 24.7768 69.409 24.4059C70.4058 24.035 71.4938 23.8496 72.673 23.8496C73.8663 23.8496 74.9543 24.035 75.9371 24.4059C76.9338 24.7768 77.7972 25.3057 78.5272 25.9925C79.2572 26.6655 79.8258 27.4554 80.2329 28.362C80.6541 29.2686 80.8647 30.2644 80.8647 31.3496C80.8647 32.4348 80.6541 33.4375 80.2329 34.3579C79.8258 35.2644 79.2572 36.0543 78.5272 36.7274C77.7972 37.4004 76.9338 37.9224 75.9371 38.2933C74.9543 38.6642 73.8663 38.8496 72.673 38.8496ZM72.673 35.4705C73.2346 35.4705 73.754 35.3743 74.2313 35.182C74.7227 34.9897 75.1439 34.715 75.4948 34.3579C75.8598 33.987 76.1406 33.5474 76.3372 33.0392C76.5477 32.5309 76.653 31.9677 76.653 31.3496C76.653 30.7177 76.5477 30.1546 76.3372 29.66C76.1406 29.1518 75.8598 28.7191 75.4948 28.362C75.1439 27.9911 74.7227 27.7095 74.2313 27.5172C73.754 27.3249 73.2346 27.2287 72.673 27.2287C72.1115 27.2287 71.585 27.3249 71.0937 27.5172C70.6163 27.7095 70.1952 27.9911 69.8302 28.362C69.4792 28.7191 69.1984 29.1518 68.9878 29.66C68.7913 30.1546 68.693 30.7177 68.693 31.3496C68.693 31.9677 68.7913 32.5309 68.9878 33.0392C69.1984 33.5474 69.4792 33.987 69.8302 34.3579C70.1952 34.715 70.6163 34.9897 71.0937 35.182C71.585 35.3743 72.1115 35.4705 72.673 35.4705Z" fill="#31477C"/>
<path d="M83.0485 38.5611V24.1381H87.218V35.3263H94.2515V38.5611H83.0485Z" fill="#31477C"/>
</symbol>
 </svg>